#!OML:ASF F:\VICON\USERDATA\INSTALL\rory3\rory3.ASF
:FULLY-SPECIFIED
:DEGREES
1315
root 1.31791 17.8438 -6.70665 -116.952 -40.1389 133.197
lowerback -10.2612 -3.08222 -7.25678
upperback -12.7162 -6.46716 -9.62214
thorax -8.58938 -4.16439 -6.42821
lowerneck -18.4981 10.3176 -0.00253704
upperneck 9.17181 16.2908 -21.1761
head 7.87009 5.49439 -4.89866
rclavicle 1.39149e-014 -1.90833e-014
rhumerus -4.62587 -35.5496 -19.6501
rradius 16.7853
rwrist 28.9562
rhand -31.3966 29.0936
rfingers 7.12502
rthumb -4.66611 -0.835015
lclavicle 1.39149e-014 -1.90833e-014
lhumerus -27.9471 16.1875 18.7276
lradius 18.5945
lwrist -47.8423
lhand -28.1043 17.4233
lfingers 7.12502
lthumb -1.48669 47.3979
rfemur -228.41 -183.177 145.97
rtibia 35.3202
rfoot -70.1442 -44.7838
rtoes 43.6234
lfemur 0.283472 -3.53543 -14.2707
ltibia 15.8385
lfoot 20.3964 29.9923
ltoes 12.8464
1316
root 1.32893 17.7801 -6.60826 -116.837 -40.6555 132.965
lowerback -10.322 -2.80492 -7.18539
upperback -12.4671 -6.01818 -9.83546
thorax -8.26 -3.93897 -6.70323
lowerneck -16.8962 11.7732 1.40161
upperneck 9.08467 18.1691 -22.6752
head 8.08323 6.39616 -5.36294
rclavicle -2.85256e-014 6.04305e-014
rhumerus -9.62127 -36.0804 -19.1382
rradius 15.9874
rwrist 28.2215
rhand -31.7408 29.0297
rfingers 7.12502
rthumb -4.99843 -0.891305
lclavicle -2.85256e-014 6.04305e-014
lhumerus -28.7556 17.7177 21.0393
lradius 18.1633
lwrist -50.2425
lhand -27.1335 17.1273
lfingers 7.12502
lthumb -0.549053 47.1063
rfemur -228.595 -182.903 146.01
rtibia 36.0664
rfoot -69.3412 -45.3865
rtoes 42.92
lfemur -1.53939 -1.75323 -15.9163
ltibia 16.7528
lfoot 20.3072 25.8837
ltoes 7.05029
1317
root 1.34032 17.709 -6.51299 -116.655 -41.2383 132.595
lowerback -10.6168 -2.86047 -7.70236
upperback -12.0013 -5.81948 -9.57467
thorax -7.44895 -3.72532 -6.1485
lowerneck -17.0315 13.2689 1.76107
upperneck 10.3728 20.6253 -23.0776
head 8.95089 7.35856 -5.13009
rclavicle -2.68359e-014 9.06458e-014
rhumerus -13.3027 -40.1167 -18.6256
rradius 14.7307
rwrist 31.5452
rhand -31.4657 29.6157
rfingers 7.12502
rthumb -4.7328 -0.311449
lclavicle -2.68359e-014 9.06458e-014
lhumerus -29.999 19.9706 23.4484
lradius 17.8136
lwrist -52.4618
lhand -25.8869 17.2932
lfingers 7.12502
lthumb 0.654934 47.272
rfemur -228.696 -183.415 145.641
rtibia 36.8689
rfoot -69.7046 -45.7594
rtoes 42.2919
lfemur -3.25034 0.0356338 -17.6077
ltibia 17.7346
lfoot 17.6122 23.4155
ltoes 8.41342
1318
root 1.35461 17.6432 -6.39944 -117.039 -42.4765 132.822
lowerback -9.6224 -1.95122 -6.03511
upperback -12.2715 -4.94616 -10.4323
thorax -8.47812 -3.50079 -7.95543
lowerneck -14.531 14.2128 3.43026
upperneck 10.9673 21.7741 -23.298
head 9.06355 8.10779 -5.36566
rclavicle -3.58309e-014 -4.05521e-014
rhumerus -21.4469 -43.0962 -15.3213
rradius 13.9627
rwrist 35.7893
rhand -31.2448 29.6839
rfingers 7.12502
rthumb -4.51955 -0.247915
lclavicle -3.58309e-014 -4.05521e-014
lhumerus -29.6145 16.4834 26.8706
lradius 18.048
lwrist -50.9028
lhand -24.685 17.3424
lfingers 7.12502
lthumb 1.81576 47.3144
rfemur -228.768 -183.872 146.344
rtibia 37.632
rfoot -70.3221 -45.3528
rtoes 42.3772
lfemur -4.79986 1.68304 -18.5589
ltibia 18.9272
lfoot 13.7464 21.5304
ltoes 13.3978
1319
root 1.36895 17.5776 -6.2662 -117.701 -43.8382 133.406
lowerback -10.475 -2.69182 -6.172
upperback -11.1715 -5.24188 -8.85949
thorax -6.51015 -3.36715 -6.19099
lowerneck -11.9064 16.4259 4.36745
upperneck 7.58624 24.3855 -26.7516
head 8.51845 9.54282 -6.26861
rclavicle 3.94339e-014 -9.54166e-015
rhumerus -23.3175 -51.3555 -14.2542
rradius 12.4527
rwrist 44.1408
rhand -30.6892 29.8102
rfingers 7.12502
rthumb -3.98304 -0.132318
lclavicle 3.94339e-014 -9.54166e-015
lhumerus -32.0251 21.2639 28.9037
lradius 17.7622
lwrist -52.8595
lhand -24.439 16.2848
lfingers 7.12502
lthumb 2.05343 46.2547
rfemur -228.894 -183.541 147.674
rtibia 38.3204
rfoot -69.6147 -45.1786
rtoes 42.4268
lfemur -6.41901 2.91544 -19.4125
ltibia 20.359
lfoot 11.2797 18.3676
ltoes 13.3485
1320
root 1.38317 17.5086 -6.13255 -118.402 -45.0406 133.759
lowerback -9.77902 -2.30329 -4.82209
upperback -11.0609 -4.84392 -9.24338
thorax -6.87256 -3.26909 -7.31611
lowerneck -9.68976 17.603 7.89759
upperneck 7.96743 26.1424 -28.8557
head 9.42235 10.4747 -7.24412
rclavicle -9.02979e-014 -2.8625e-014
rhumerus -33.2701 -56.6706 -7.83008
rradius 11.5948
rwrist 52.0858
rhand -30.4276 29.9732
rfingers 7.12502
rthumb -3.73042 0.0260675
lclavicle -9.02979e-014 -2.8625e-014
lhumerus -32.696 22.2779 30.0363
lradius 17.4894
lwrist -54.779
lhand -24.2547 14.8285
lfingers 7.12502
lthumb 2.23134 44.7966
rfemur -228.779 -183.838 148.459
rtibia 38.9016
rfoot -69.6836 -45.3822
rtoes 42.0436
lfemur -7.98285 3.70631 -20.596
ltibia 22.1432
lfoot 9.69162 14.6281
ltoes 9.50003
1321
root 1.39528 17.4366 -5.99329 -119.058 -46.2871 134.033
lowerback -9.80714 -2.55849 -4.34994
upperback -10.3499 -4.91886 -8.68001
thorax -6.01516 -3.21414 -6.97394
lowerneck -8.22707 19.2575 8.63914
upperneck 7.10506 28.471 -29.8943
head 9.64382 11.7078 -7.23855
rclavicle -9.7156e-015 1.90833e-014
rhumerus -45.2961 -63.8945 2.28775
rradius 10.7527
rwrist 62.1827
rhand -30.5005 29.923
rfingers 7.12502
rthumb -3.80078 -0.0228657
lclavicle -9.7156e-015 1.90833e-014
lhumerus -34.0528 25.3123 31.456
lradius 17.2633
lwrist -56.3929
lhand -23.5796 14.0391
lfingers 7.12502
lthumb 2.8834 43.9994
rfemur -228.452 -183.013 149.791
rtibia 39.4463
rfoot -68.3534 -45.0802
rtoes 42.2169
lfemur -9.51417 4.54419 -21.7749
ltibia 23.9647
lfoot 8.42694 10.9211
ltoes 5.25685
